<?xml version="1.0" encoding="UTF-8" standalone="no"?>
<svg width="18px" height="14px" viewBox="0 0 18 14" version="1.1" xmlns="http://www.w3.org/2000/svg" xmlns:xlink="http://www.w3.org/1999/xlink">
    <!-- Generator: Sketch 3.6.1 (26313) - http://www.bohemiancoding.com/sketch -->
    <title>icn-view</title>
    <desc>Created with Sketch.</desc>
    <defs></defs>
    <g id="Page-1" stroke="none" stroke-width="1" fill="none" fill-rule="evenodd">
        <g id="detail-add-map" transform="translate(-294.000000, -513.000000)" fill="#FFFFFF">
            <g id="//-CONTENT-//" transform="translate(0.000000, 75.000000)">
                <g id="::-views" transform="translate(135.000000, 426.000000)">
                    <g id="::-toggle">
                        <path d="M168,12 C162,12 159,18.781125 159,18.781125 C159,18.781125 162,25.5 168,25.5 C174,25.5 177,18.75 177,18.75 C177,18.75 174,12 168,12 L168,12 Z M168,24 C164.035125,24 161.531813,20.272125 160.688063,18.77775 C161.53125,17.269125 164.035125,13.5 168,13.5 C171.965625,13.5 174.469125,17.249625 175.312125,18.75 C174.467625,20.253 171.964687,24 168,24 L168,24 Z M168,15.75 C166.34325,15.75 165,17.09325 165,18.75 C165,20.4069375 166.34325,21.75 168,21.75 C169.656937,21.75 171,20.4069375 171,18.75 C171,17.09325 169.656937,15.75 168,15.75 L168,15.75 Z M168,20.25 C167.172937,20.25 166.5,19.5770625 166.5,18.75 C166.5,17.9229375 167.172937,17.25 168,17.25 C168.827063,17.25 169.5,17.9229375 169.5,18.75 C169.5,19.5770625 168.827063,20.25 168,20.25 L168,20.25 Z" id="icn-view"></path>
                    </g>
                </g>
            </g>
        </g>
    </g>
</svg>